<svg xmlns="http://www.w3.org/2000/svg" version="1.1" xmlns:xlink="http://www.w3.org/1999/xlink" xmlns:svgjs="http://svgjs.dev/svgjs" width="1440" height="560" preserveAspectRatio="none" viewBox="0 0 1440 560"><g mask="url(&quot;#SvgjsMask1000&quot;)" fill="none"><rect width="1440" height="560" x="0" y="0" fill="#0e2a47"></rect><path d="M 0,16 C 57.6,59.4 172.8,226.4 288,233 C 403.2,239.6 460.8,54.4 576,49 C 691.2,43.6 748.8,214.8 864,206 C 979.2,197.2 1036.8,-9.2 1152,5 C 1267.2,19.2 1382.4,222.6 1440,277L1440 560L0 560z" fill="#184a7e"></path><path d="M 0,447 C 96,415.6 288,282.6 480,290 C 672,297.4 768,481 960,484 C 1152,487 1344,340.8 1440,305L1440 560L0 560z" fill="#2264ab"></path></g><defs><mask id="SvgjsMask1000"><rect width="1440" height="560" fill="#ffffff"></rect></mask></defs></svg>